<svg xmlns="http://www.w3.org/2000/svg" width="883.599" height="163.963" viewBox="0 0 883.599 163.963">
  <g id="bca_logo" data-name="bca logo" transform="translate(-205.105 -347.267)">
    <path id="Path_1" data-name="Path 1" d="M294.495,389.7h41.874c10.267,0,17.5,2.564,22.279,7.349a17.887,17.887,0,0,1,5.253,13.179v.233c0,9.448-5.366,15.047-12.6,18.2,9.916,3.267,16.217,8.865,16.217,19.945v.236c0,13.995-11.434,22.512-30.91,22.512H294.495Zm36.275,32.544c6.885,0,10.732-2.335,10.732-7.117v-.232c0-4.434-3.5-7-10.262-7h-14.7v14.35Zm3.27,30.909c6.879,0,10.845-2.683,10.845-7.465v-.232c0-4.434-3.5-7.349-11.078-7.349H316.542V453.15Z" fill="#4161aa"/>
    <path id="Path_2" data-name="Path 2" d="M373.628,453.267v-.233c0-13.063,9.916-19.829,24.727-19.829a48.459,48.459,0,0,1,15.163,2.448v-1.048c0-6.534-4.079-10.265-12.6-10.265a44.462,44.462,0,0,0-17.378,3.5l-4.55-15.63a63.4,63.4,0,0,1,25.543-4.9c11.316,0,19.016,2.683,24.031,7.7,4.782,4.666,6.765,11.2,6.765,20.064v36.276H413.4v-6.534c-4.318,4.783-10.267,7.933-18.551,7.933C382.841,472.747,373.628,465.866,373.628,453.267Zm40.123-4.783v-2.915a23.241,23.241,0,0,0-8.63-1.632c-6.414,0-10.148,3.148-10.148,7.814v.232c0,4.318,3.263,6.885,7.813,6.885C409.206,458.868,413.751,454.785,413.751,448.484Z" fill="#4161aa"/>
    <path id="Path_3" data-name="Path 3" d="M444.039,408.242H466.2v12.715c3.62-8.632,9.451-14.23,19.951-13.766v23.331h-1.87c-11.548,0-18.081,6.649-18.081,21.229v19.6H444.039Z" fill="#4161aa"/>
    <path id="Path_4" data-name="Path 4" d="M493.154,440.087v-.233c0-18.432,13.18-33.011,31.844-33.011,21.81,0,31.845,15.979,31.845,34.527,0,1.4,0,3.032-.119,4.55H514.5c1.751,6.882,6.765,10.381,13.65,10.381,5.247,0,9.446-1.983,14-6.417l12.244,10.148c-6.063,7.7-14.811,12.831-27.407,12.831C507.15,472.863,493.154,459.684,493.154,440.087Zm42.922-5.482c-.816-7-4.9-11.432-10.964-11.432-5.831,0-9.8,4.55-10.964,11.432Z" fill="#4161aa"/>
    <path id="Path_5" data-name="Path 5" d="M575.264,430.754v-.232c0-23.8,18.313-42.46,43.041-42.46,16.682,0,27.414,7,34.644,17.03l-17.028,13.182c-4.668-5.833-10.034-9.564-17.848-9.564-11.429,0-19.481,9.681-19.481,21.58v.232c0,12.248,8.052,21.812,19.481,21.812,8.516,0,13.531-3.966,18.432-9.915l17.027,12.131c-7.7,10.616-18.081,18.43-36.156,18.43C594.042,472.98,575.264,455.134,575.264,430.754Z" fill="#40b39e"/>
    <path id="Path_6" data-name="Path 6" d="M659.79,386.2h22.166v85.15H659.79Z" fill="#40b39e"/>
    <path id="Path_7" data-name="Path 7" d="M689.138,440.087v-.233c0-18.432,13.18-33.011,31.844-33.011,21.815,0,31.845,15.979,31.845,34.527,0,1.4,0,3.032-.114,4.55h-42.23c1.751,6.882,6.765,10.381,13.65,10.381,5.247,0,9.446-1.983,14-6.417l12.25,10.148c-6.069,7.7-14.817,12.831-27.414,12.831C703.139,472.863,689.138,459.684,689.138,440.087Zm42.927-5.482c-.816-7-4.9-11.432-10.964-11.432-5.836,0-9.8,4.55-10.964,11.432Z" fill="#40b39e"/>
    <path id="Path_8" data-name="Path 8" d="M759.284,453.267v-.233c0-13.063,9.916-19.829,24.733-19.829a48.459,48.459,0,0,1,15.163,2.448v-1.048c0-6.534-4.085-10.265-12.6-10.265a44.467,44.467,0,0,0-17.379,3.5l-4.55-15.63a63.413,63.413,0,0,1,25.549-4.9c11.31,0,19.011,2.683,24.026,7.7,4.782,4.666,6.765,11.2,6.765,20.064v36.276H799.062v-6.534c-4.318,4.783-10.262,7.933-18.546,7.933C768.5,472.747,759.284,465.866,759.284,453.267Zm40.129-4.783v-2.915a23.241,23.241,0,0,0-8.63-1.632c-6.42,0-10.148,3.148-10.148,7.814v.232c0,4.318,3.263,6.885,7.813,6.885C794.863,458.868,799.413,454.785,799.413,448.484Z" fill="#40b39e"/>
    <path id="Path_9" data-name="Path 9" d="M829.7,408.242h22.161v12.715c3.615-8.632,9.446-14.23,19.945-13.766v23.331h-1.864c-11.548,0-18.081,6.649-18.081,21.229v19.6H829.7Z" fill="#40b39e"/>
    <path id="Path_10" data-name="Path 10" d="M911.319,389.113h21.815L967.9,471.348H943.634l-5.95-14.58H906.191l-5.836,14.58H876.562Zm19.832,50.042-9.1-23.215-9.213,23.215Z" fill="#ffa800"/>
    <path id="Path_11" data-name="Path 11" d="M964.044,440.087v-.233c0-17.848,13.877-32.895,33.828-32.895,12.947,0,21.577,5.6,26.943,14.115l-15.05,11.2c-3.031-4.2-6.414-6.646-11.78-6.646-7.111,0-12.364,6.3-12.364,13.995v.235c0,8.166,5.134,14.347,12.6,14.347,5.253,0,8.636-2.45,12.132-6.533l14.817,10.732c-5.836,8.633-14.233,14.463-28.11,14.463A32.56,32.56,0,0,1,964.044,440.087Z" fill="#ffa800"/>
    <path id="Path_12" data-name="Path 12" d="M1039.751,451.751V426.088h-7.463V408.242h7.463V392.261h22.166v15.981h14.7v17.846h-14.7v21.348c0,4.431,1.983,6.3,6.063,6.3a19.425,19.425,0,0,0,8.4-2.1v17.381a31.607,31.607,0,0,1-15.4,3.615C1047.684,472.631,1039.751,466.8,1039.751,451.751Z" fill="#ffa800"/>
    <text id="CLEAR_INTERPRETATION_OF_LAW" data-name="CLEAR INTERPRETATION OF LAW" transform="translate(291.703 506.23)" fill="#646464" font-size="31.264" font-family="Gotham-Book, Gotham" letter-spacing="0.3em"><tspan x="0" y="0">CLEAR INTERPRETATION OF LAW</tspan></text>
    <g id="Group_1" data-name="Group 1">
      <path id="Path_13" data-name="Path 13" d="M299.676,348.674c-23.962-5.044-64.8,3.3-82.148,27.814-.63,7.787,2.013,15.326,2.884,23.028-3.439-3.566-6.916-7.14-10.4-10.684-8.926,20.033-4.229,38.151,2.548,58.149,5.239-29.33,18.876-49.912,40.88-69.621-26.614,31.738-36.669,60.5-32.02,101.9l4.709-1.494c-.919-6.467-2.553-12.716-4.079-19.056,16.287-16.586,30.748-33.676,42.664-53.693-3.3-.618-6.617-1.123-9.924-1.7q6.255-3.143,12.561-6.178c3.509-6.087,7.159-12.069,11.112-17.88-4.728-.88-9.463-1.639-14.241-2.193,5.756-4.13,10.719-5.473,17.72-4.3,8.415-8.711,17.465-15.029,28.078-21.6C297.84,348.715,323.637,353.718,299.676,348.674Z" fill="#ffa800"/>
    </g>
    <path id="Path_14" data-name="Path 14" d="M264.6,502.1q.72-.224,1.422-.5c4.848-1.933,9.015-6.6,8.63-11.81a17.173,17.173,0,0,1-4.562,12.542c-2.987,2.984-7.171,4.425-11.287,5.366-11.678,2.672-24.236,1.984-35.234-2.766-4.613-1.993-9.034-4.776-11.984-8.845s-4.211-9.591-2.329-14.251c1.487-3.679,4.7-6.407,8.14-8.379,1.942-1.112,4.16-2.057,6.359-1.647s4.145,2.714,3.409,4.826c-.548,1.571-2.266,2.4-3.89,2.77s-3.351.44-4.815,1.231c-2.538,1.369-3.6,4.667-3,7.489a13.125,13.125,0,0,0,4.739,7.046c4.847,4.062,11.032,5.986,17.176,7.014a93.928,93.928,0,0,0,20.755,1A26.874,26.874,0,0,0,264.6,502.1Z" fill="#595a5a"/>
    <path id="Path_15" data-name="Path 15" d="M254.5,486.9c-.236.11-2.191-1.242-2.447-1.375a39.009,39.009,0,0,0-5.9-2.54c-2.667-.869-9.869-2.234-9.924,2.3-.054,4.37,4.648,6.924,8.29,7.732a26.335,26.335,0,0,0,5.193.565l-.243-4.333Z" fill="#595a5a"/>
  </g>
</svg>
